<?xml version="1.0" encoding="UTF-8"?><svg id="Camada_2" xmlns="http://www.w3.org/2000/svg" viewBox="0 0 896.69 344.53"><defs><style>.cls-1{fill:#fff;stroke-width:0px;}</style></defs><g id="logo-reduzido_"><path class="cls-1" d="m890.68,0H87.99c-2.76,0-5.16,1.88-5.83,4.56L.18,337.1c-.93,3.78,1.93,7.44,5.83,7.44h802.69c2.76,0,5.16-1.88,5.83-4.56L896.51,7.44c.93-3.78-1.93-7.44-5.83-7.44ZM292.59,69.24l-9.21,37.36c-.67,2.72-1.7,4.69-2.98,5.69-1.27.99-3.42,1.52-6.22,1.52h-75.36c-4.12,0-7.84,1.41-10.77,4.08-2.74,2.51-4.59,5.68-5.52,9.43-1.01,4.07-.64,7.7,1.07,10.81,1.36,2.46,4.19,5.47,9.7,5.88l46.6,6.27c13.32,1.92,23.38,6.25,29.91,12.9,5.97,6.07,7.06,17.04,3.23,32.61l-8.13,32.98c-4.09,16.59-12.53,28.94-25.81,37.78-13.34,8.88-30,13.39-49.53,13.39h-102.2c-2.9,0-3.88-.56-3.95-.56,0,0,0,0,0,0-.04-.13-.38-1.19.33-4.07l9.06-36.74c.68-2.76,1.68-4.67,2.97-5.68,1.27-.99,3.42-1.52,6.22-1.52h87c4.16,0,7.86-1.44,10.71-4.18,2.56-2.48,4.3-5.52,5.17-9.02,1.24-5.02.99-8.9-.76-11.9-1.33-2.24-4.12-5.01-9.49-5.41l-46.87-6.59c-13.29-1.91-23.3-6.23-29.72-12.86-5.89-6.08-6.94-17.07-3.1-32.64l8.13-32.97c4.09-16.59,12.49-28.95,25.66-37.79,13.23-8.88,29.95-13.38,49.68-13.38h90.56c2.88,0,3.87.55,3.95.55,0,0,0,0,0,0,.05.14.38,1.21-.32,4.07Zm90.85,203.48c-.67,2.72-1.7,4.69-2.97,5.69-1.27,1-3.43,1.52-6.23,1.52h-52.39c-2.89,0-3.87-.55-3.95-.55t0,0c-.05-.13-.37-1.21.33-4.08l39.66-160.86h-54.42c-3,0-3.94-.56-3.95-.55-.05-.12-.38-1.19.33-4.07l9.37-38c.67-2.72,1.7-4.68,2.97-5.68,1.27-.99,3.42-1.52,6.22-1.52h170.76c2.97,0,3.88.57,3.96.55.05.14.37,1.22-.33,4.08l-9.37,38c-.67,2.72-1.7,4.68-2.96,5.68-1.27,1-3.43,1.52-6.23,1.52h-51.76l-39.02,158.28Zm80.42,7.21c-3.02,0-3.94-.54-3.99-.54-.05-.11-.38-1.18.32-4.1l50.19-203.45c.7-2.75,1.73-4.69,2.97-5.71.81-.59,1.99-1.08,3.45-1.3.86-.16,1.78-.22,2.8-.22h47.82c-1.35,32.35-4.69,73.21-25.5,80.65-12.13,4.37-24.15,22.32-23.51,23.02,3.02,3.4,2.59,3.88,1.56,5.01-2.32,2.48,1.08,7.82,4.1,6.36,3.5-1.83,9.22,5.82,6.2,11.54-.75,1.35.65,5.61,3.13,4.37,4.96-2.21,14.77,27.49,16.6,32.61,6.36,18.44,1.4,14.5,3.02,18.98,1.18,3.5,4.53-1.3,5.55,3.4,1.94,7.55-2.37,3.94-.32,7.98,2.05,3.99,3.72-.86,5.23,2.96,2.7,6.15,4.53,6.9,2.21,8.84-1.19.92.65,4.69,2.59,3.88,2.1-.97,5.93,2.86,6.79,5.71h-111.21Zm240.49,0h-109c2.48-10.35-3.67-22.7.16-25.82,1.02-.86.92-1.78.43-2.53-14.66-28.19,11.54-70.14,7.44-73.37-2-1.56-5.23,3.88-4.53-1.24,4.96-41.35,19.73-79.08,34.88-112.35,48.14,0,93.26.06,93.43.06-.22.48-.59,1.08-1.13,1.83l-84.48,121.24,62.91,90.3c.54.76.92,1.4,1.13,1.83-.32.05-.75.05-1.24.05Zm55.14-38.28c-29.77,0-53.91-24.14-53.91-53.91s24.14-53.91,53.91-53.91,53.91,24.14,53.91,53.91-24.14,53.91-53.91,53.91Z"/></g></svg>